<svg width="33" height="48" viewBox="0 0 33 48" fill="none" xmlns="http://www.w3.org/2000/svg">
<g clip-path="url(#clip0_1381_4420)">
<path d="M31.6212 5.30908H1.37891V46.6247H31.6212V5.30908Z" fill="white"/>
<path d="M31.6212 47.5002H1.37884C0.893926 47.5002 0.5 47.1074 0.5 46.6239V5.30937C0.5 4.82588 0.893926 4.43311 1.37884 4.43311H31.6212C32.1061 4.43311 32.5 4.82588 32.5 5.30937V46.625C32.5 47.1085 32.1061 47.5012 31.6212 47.5012V47.5002ZM2.25767 45.7477H30.7423V6.18564H2.25767V45.7487V45.7477Z" fill="#786A66"/>
<path d="M22.7862 3.67416H18.5223V2.51645C18.5223 1.40307 17.6166 0.5 16.5 0.5C15.3833 0.5 14.4776 1.40307 14.4776 2.51645V3.67416H10.2137C9.9304 3.67416 9.7019 3.90302 9.7019 4.18446V6.43286C9.7019 6.71533 9.93144 6.94316 10.2137 6.94316H22.7862C23.0695 6.94316 23.298 6.7143 23.298 6.43286V4.18446C23.298 3.90199 23.0685 3.67416 22.7862 3.67416ZM16.5 1.62678C17.0107 1.62678 17.4253 2.04017 17.4253 2.54944C17.4253 3.05871 17.0107 3.4721 16.5 3.4721C15.9892 3.4721 15.5746 3.05871 15.5746 2.54944C15.5746 2.04017 15.9892 1.62678 16.5 1.62678Z" fill="#786A66"/>
<path d="M8.21212 14.28H5.00592C4.9201 14.28 4.85083 14.211 4.85083 14.1254V10.9286C4.85083 10.843 4.9201 10.7739 5.00592 10.7739H8.21212C8.29794 10.7739 8.36721 10.843 8.36721 10.9286V14.1254C8.36721 14.211 8.29794 14.28 8.21212 14.28ZM5.16101 13.9708H8.05703V11.0832H5.16101V13.9708Z" fill="#786A66"/>
<path d="M6.51941 13.4789L3.90771 11.7872L4.24581 11.2687L6.31573 12.6088C6.86164 11.7305 8.61621 9.08315 10.194 8.66357L10.3542 9.2615C9.01841 9.61613 7.25246 12.2233 6.68381 13.1975L6.52045 13.4789H6.51941Z" fill="#E1AC23"/>
<path d="M8.21212 21.4544H5.00592C4.9201 21.4544 4.85083 21.3853 4.85083 21.2997V18.1029C4.85083 18.0173 4.9201 17.9482 5.00592 17.9482H8.21212C8.29794 17.9482 8.36721 18.0173 8.36721 18.1029V21.2997C8.36721 21.3853 8.29794 21.4544 8.21212 21.4544ZM5.16101 21.1451H8.05703V18.2575H5.16101V21.1451Z" fill="#786A66"/>
<path d="M6.51941 20.6533L3.90771 18.9615L4.24581 18.443L6.31573 19.7832C6.86164 18.9048 8.61621 16.2575 10.194 15.8379L10.3542 16.4358C9.01841 16.7904 7.25246 19.3976 6.68381 20.3718L6.52045 20.6533H6.51941Z" fill="#E1AC23"/>
<path d="M8.21212 28.6282H5.00592C4.9201 28.6282 4.85083 28.5591 4.85083 28.4735V25.2767C4.85083 25.1911 4.9201 25.1221 5.00592 25.1221H8.21212C8.29794 25.1221 8.36721 25.1911 8.36721 25.2767V28.4735C8.36721 28.5591 8.29794 28.6282 8.21212 28.6282ZM5.16101 28.3189H8.05703V25.4313H5.16101V28.3189Z" fill="#786A66"/>
<path d="M8.21212 35.8025H5.00592C4.9201 35.8025 4.85083 35.7334 4.85083 35.6479V32.451C4.85083 32.3655 4.9201 32.2964 5.00592 32.2964H8.21212C8.29794 32.2964 8.36721 32.3655 8.36721 32.451V35.6479C8.36721 35.7334 8.29794 35.8025 8.21212 35.8025ZM5.16101 35.4932H8.05703V32.6057H5.16101V35.4932Z" fill="#786A66"/>
<path d="M6.51941 35.0013L3.90771 33.3096L4.24581 32.7911L6.31469 34.1313C6.86061 33.2529 8.61518 30.6056 10.193 30.187L10.3522 30.7849C9.01634 31.1396 7.2504 33.7467 6.68277 34.7209L6.51941 35.0024V35.0013Z" fill="#E1AC23"/>
<path d="M28.6859 10.738H10.8765C10.7907 10.738 10.7214 10.6689 10.7214 10.5833C10.7214 10.4978 10.7907 10.4287 10.8765 10.4287H28.6859C28.7717 10.4287 28.841 10.4978 28.841 10.5833C28.841 10.6689 28.7717 10.738 28.6859 10.738Z" fill="#786A66"/>
<path d="M16.5735 11.968H10.8765C10.7907 11.968 10.7214 11.8989 10.7214 11.8133C10.7214 11.7278 10.7907 11.6587 10.8765 11.6587H16.5735C16.6593 11.6587 16.7285 11.7278 16.7285 11.8133C16.7285 11.8989 16.6593 11.968 16.5735 11.968Z" fill="#786A66"/>
<path d="M14.974 14.4274H10.8765C10.7907 14.4274 10.7214 14.3584 10.7214 14.2728C10.7214 14.1872 10.7907 14.1182 10.8765 14.1182H14.974C15.0598 14.1182 15.1291 14.1872 15.1291 14.2728C15.1291 14.3584 15.0598 14.4274 14.974 14.4274Z" fill="#786A66"/>
<path d="M28.6861 14.4274H17.7327C17.6469 14.4274 17.5776 14.3584 17.5776 14.2728C17.5776 14.1872 17.6469 14.1182 17.7327 14.1182H28.6861C28.7719 14.1182 28.8412 14.1872 28.8412 14.2728C28.8412 14.3584 28.7719 14.4274 28.6861 14.4274Z" fill="#786A66"/>
<path d="M20.7205 13.1975H10.8765C10.7907 13.1975 10.7214 13.1284 10.7214 13.0428C10.7214 12.9573 10.7907 12.8882 10.8765 12.8882H20.7205C20.8063 12.8882 20.8756 12.9573 20.8756 13.0428C20.8756 13.1284 20.8063 13.1975 20.7205 13.1975Z" fill="#786A66"/>
<path d="M25.9274 11.968H19.0652C18.9794 11.968 18.9102 11.8989 18.9102 11.8133C18.9102 11.7278 18.9794 11.6587 19.0652 11.6587H25.9274C26.0132 11.6587 26.0825 11.7278 26.0825 11.8133C26.0825 11.8989 26.0132 11.968 25.9274 11.968Z" fill="#786A66"/>
<path d="M28.686 13.1975H21.8238C21.738 13.1975 21.6687 13.1284 21.6687 13.0428C21.6687 12.9573 21.738 12.8882 21.8238 12.8882H28.686C28.7718 12.8882 28.841 12.9573 28.841 13.0428C28.841 13.1284 28.7718 13.1975 28.686 13.1975Z" fill="#786A66"/>
<path d="M28.6859 17.9123H10.8765C10.7907 17.9123 10.7214 17.8432 10.7214 17.7577C10.7214 17.6721 10.7907 17.603 10.8765 17.603H28.6859C28.7717 17.603 28.841 17.6721 28.841 17.7577C28.841 17.8432 28.7717 17.9123 28.6859 17.9123Z" fill="#786A66"/>
<path d="M16.5735 19.1418H10.8765C10.7907 19.1418 10.7214 19.0727 10.7214 18.9872C10.7214 18.9016 10.7907 18.8325 10.8765 18.8325H16.5735C16.6593 18.8325 16.7285 18.9016 16.7285 18.9872C16.7285 19.0727 16.6593 19.1418 16.5735 19.1418Z" fill="#786A66"/>
<path d="M14.974 21.6018H10.8765C10.7907 21.6018 10.7214 21.5327 10.7214 21.4471C10.7214 21.3616 10.7907 21.2925 10.8765 21.2925H14.974C15.0598 21.2925 15.1291 21.3616 15.1291 21.4471C15.1291 21.5327 15.0598 21.6018 14.974 21.6018Z" fill="#786A66"/>
<path d="M28.6861 21.6018H17.7327C17.6469 21.6018 17.5776 21.5327 17.5776 21.4471C17.5776 21.3616 17.6469 21.2925 17.7327 21.2925H28.6861C28.7719 21.2925 28.8412 21.3616 28.8412 21.4471C28.8412 21.5327 28.7719 21.6018 28.6861 21.6018Z" fill="#786A66"/>
<path d="M20.7205 20.3718H10.8765C10.7907 20.3718 10.7214 20.3027 10.7214 20.2171C10.7214 20.1316 10.7907 20.0625 10.8765 20.0625H20.7205C20.8063 20.0625 20.8756 20.1316 20.8756 20.2171C20.8756 20.3027 20.8063 20.3718 20.7205 20.3718Z" fill="#786A66"/>
<path d="M25.9274 19.1418H19.0652C18.9794 19.1418 18.9102 19.0727 18.9102 18.9872C18.9102 18.9016 18.9794 18.8325 19.0652 18.8325H25.9274C26.0132 18.8325 26.0825 18.9016 26.0825 18.9872C26.0825 19.0727 26.0132 19.1418 25.9274 19.1418Z" fill="#786A66"/>
<path d="M28.686 20.3718H21.8238C21.738 20.3718 21.6687 20.3027 21.6687 20.2171C21.6687 20.1316 21.738 20.0625 21.8238 20.0625H28.686C28.7718 20.0625 28.841 20.1316 28.841 20.2171C28.841 20.3027 28.7718 20.3718 28.686 20.3718Z" fill="#786A66"/>
<path d="M28.6859 25.0861H10.8765C10.7907 25.0861 10.7214 25.0171 10.7214 24.9315C10.7214 24.8459 10.7907 24.7769 10.8765 24.7769H28.6859C28.7717 24.7769 28.841 24.8459 28.841 24.9315C28.841 25.0171 28.7717 25.0861 28.6859 25.0861Z" fill="#786A66"/>
<path d="M16.5735 26.3161H10.8765C10.7907 26.3161 10.7214 26.247 10.7214 26.1615C10.7214 26.0759 10.7907 26.0068 10.8765 26.0068H16.5735C16.6593 26.0068 16.7285 26.0759 16.7285 26.1615C16.7285 26.247 16.6593 26.3161 16.5735 26.3161Z" fill="#786A66"/>
<path d="M14.974 28.7756H10.8765C10.7907 28.7756 10.7214 28.7065 10.7214 28.6209C10.7214 28.5354 10.7907 28.4663 10.8765 28.4663H14.974C15.0598 28.4663 15.1291 28.5354 15.1291 28.6209C15.1291 28.7065 15.0598 28.7756 14.974 28.7756Z" fill="#786A66"/>
<path d="M28.6861 28.7756H17.7327C17.6469 28.7756 17.5776 28.7065 17.5776 28.6209C17.5776 28.5354 17.6469 28.4663 17.7327 28.4663H28.6861C28.7719 28.4663 28.8412 28.5354 28.8412 28.6209C28.8412 28.7065 28.7719 28.7756 28.6861 28.7756Z" fill="#786A66"/>
<path d="M20.7205 27.5456H10.8765C10.7907 27.5456 10.7214 27.4765 10.7214 27.391C10.7214 27.3054 10.7907 27.2363 10.8765 27.2363H20.7205C20.8063 27.2363 20.8756 27.3054 20.8756 27.391C20.8756 27.4765 20.8063 27.5456 20.7205 27.5456Z" fill="#786A66"/>
<path d="M25.9274 26.3161H19.0652C18.9794 26.3161 18.9102 26.247 18.9102 26.1615C18.9102 26.0759 18.9794 26.0068 19.0652 26.0068H25.9274C26.0132 26.0068 26.0825 26.0759 26.0825 26.1615C26.0825 26.247 26.0132 26.3161 25.9274 26.3161Z" fill="#786A66"/>
<path d="M28.686 27.5456H21.8238C21.738 27.5456 21.6687 27.4765 21.6687 27.391C21.6687 27.3054 21.738 27.2363 21.8238 27.2363H28.686C28.7718 27.2363 28.841 27.3054 28.841 27.391C28.841 27.4765 28.7718 27.5456 28.686 27.5456Z" fill="#786A66"/>
<path d="M28.6859 32.2604H10.8765C10.7907 32.2604 10.7214 32.1914 10.7214 32.1058C10.7214 32.0202 10.7907 31.9512 10.8765 31.9512H28.6859C28.7717 31.9512 28.841 32.0202 28.841 32.1058C28.841 32.1914 28.7717 32.2604 28.6859 32.2604Z" fill="#786A66"/>
<path d="M16.5735 33.4899H10.8765C10.7907 33.4899 10.7214 33.4209 10.7214 33.3353C10.7214 33.2497 10.7907 33.1807 10.8765 33.1807H16.5735C16.6593 33.1807 16.7285 33.2497 16.7285 33.3353C16.7285 33.4209 16.6593 33.4899 16.5735 33.4899Z" fill="#786A66"/>
<path d="M14.974 35.9499H10.8765C10.7907 35.9499 10.7214 35.8808 10.7214 35.7953C10.7214 35.7097 10.7907 35.6406 10.8765 35.6406H14.974C15.0598 35.6406 15.1291 35.7097 15.1291 35.7953C15.1291 35.8808 15.0598 35.9499 14.974 35.9499Z" fill="#786A66"/>
<path d="M28.6861 35.9499H17.7327C17.6469 35.9499 17.5776 35.8808 17.5776 35.7953C17.5776 35.7097 17.6469 35.6406 17.7327 35.6406H28.6861C28.7719 35.6406 28.8412 35.7097 28.8412 35.7953C28.8412 35.8808 28.7719 35.9499 28.6861 35.9499Z" fill="#786A66"/>
<path d="M20.7205 34.7199H10.8765C10.7907 34.7199 10.7214 34.6508 10.7214 34.5653C10.7214 34.4797 10.7907 34.4106 10.8765 34.4106H20.7205C20.8063 34.4106 20.8756 34.4797 20.8756 34.5653C20.8756 34.6508 20.8063 34.7199 20.7205 34.7199Z" fill="#786A66"/>
<path d="M25.9274 33.4899H19.0652C18.9794 33.4899 18.9102 33.4209 18.9102 33.3353C18.9102 33.2497 18.9794 33.1807 19.0652 33.1807H25.9274C26.0132 33.1807 26.0825 33.2497 26.0825 33.3353C26.0825 33.4209 26.0132 33.4899 25.9274 33.4899Z" fill="#786A66"/>
<path d="M28.686 34.7199H21.8238C21.738 34.7199 21.6687 34.6508 21.6687 34.5653C21.6687 34.4797 21.738 34.4106 21.8238 34.4106H28.686C28.7718 34.4106 28.841 34.4797 28.841 34.5653C28.841 34.6508 28.7718 34.7199 28.686 34.7199Z" fill="#786A66"/>
<path d="M28.6859 39.4343H10.8765C10.7907 39.4343 10.7214 39.3652 10.7214 39.2796C10.7214 39.1941 10.7907 39.125 10.8765 39.125H28.6859C28.7717 39.125 28.841 39.1941 28.841 39.2796C28.841 39.3652 28.7717 39.4343 28.6859 39.4343Z" fill="#786A66"/>
<path d="M16.5735 40.6643H10.8765C10.7907 40.6643 10.7214 40.5952 10.7214 40.5096C10.7214 40.4241 10.7907 40.355 10.8765 40.355H16.5735C16.6593 40.355 16.7285 40.4241 16.7285 40.5096C16.7285 40.5952 16.6593 40.6643 16.5735 40.6643Z" fill="#786A66"/>
<path d="M14.974 43.1237H10.8765C10.7907 43.1237 10.7214 43.0547 10.7214 42.9691C10.7214 42.8835 10.7907 42.8145 10.8765 42.8145H14.974C15.0598 42.8145 15.1291 42.8835 15.1291 42.9691C15.1291 43.0547 15.0598 43.1237 14.974 43.1237Z" fill="#786A66"/>
<path d="M28.6861 43.1237H17.7327C17.6469 43.1237 17.5776 43.0547 17.5776 42.9691C17.5776 42.8835 17.6469 42.8145 17.7327 42.8145H28.6861C28.7719 42.8145 28.8412 42.8835 28.8412 42.9691C28.8412 43.0547 28.7719 43.1237 28.6861 43.1237Z" fill="#786A66"/>
<path d="M20.7205 41.8942H10.8765C10.7907 41.8942 10.7214 41.8252 10.7214 41.7396C10.7214 41.654 10.7907 41.585 10.8765 41.585H20.7205C20.8063 41.585 20.8756 41.654 20.8756 41.7396C20.8756 41.8252 20.8063 41.8942 20.7205 41.8942Z" fill="#786A66"/>
<path d="M25.9274 40.6643H19.0652C18.9794 40.6643 18.9102 40.5952 18.9102 40.5096C18.9102 40.4241 18.9794 40.355 19.0652 40.355H25.9274C26.0132 40.355 26.0825 40.4241 26.0825 40.5096C26.0825 40.5952 26.0132 40.6643 25.9274 40.6643Z" fill="#786A66"/>
<path d="M28.686 41.8942H21.8238C21.738 41.8942 21.6687 41.8252 21.6687 41.7396C21.6687 41.654 21.738 41.585 21.8238 41.585H28.686C28.7718 41.585 28.841 41.654 28.841 41.7396C28.841 41.8252 28.7718 41.8942 28.686 41.8942Z" fill="#786A66"/>
<path d="M8.21212 42.9763H5.00592C4.9201 42.9763 4.85083 42.9073 4.85083 42.8217V39.6249C4.85083 39.5393 4.9201 39.4702 5.00592 39.4702H8.21212C8.29794 39.4702 8.36721 39.5393 8.36721 39.6249V42.8217C8.36721 42.9073 8.29794 42.9763 8.21212 42.9763ZM5.16101 42.6671H8.05703V39.7795H5.16101V42.6671Z" fill="#786A66"/>
</g>
<defs>
<clipPath id="clip0_1381_4420">
<rect width="32" height="47" fill="white" transform="translate(0.5 0.5)"/>
</clipPath>
</defs>
</svg>
