<svg width="53" height="47" viewBox="0 0 53 47" fill="none" xmlns="http://www.w3.org/2000/svg">
<g clip-path="url(#clip0_1343_2306)">
<path d="M51.1273 6.75H10.4222V35.5267H51.1273V6.75Z" fill="white"/>
<path d="M51.1272 36.3755H10.422C9.94042 36.3755 9.54916 35.9949 9.54916 35.5263V6.74961C9.54916 6.28104 9.94042 5.90039 10.422 5.90039H51.1272C51.6088 5.90039 52 6.28104 52 6.74961V35.5263C52 35.9949 51.6088 36.3755 51.1272 36.3755ZM11.2949 34.6771H50.2543V7.59884H11.2949V34.6771Z" fill="#786A66"/>
<path d="M13.4352 4.375H13.2965C13.026 4.375 12.8067 4.58836 12.8067 4.85156V8.15754C12.8067 8.42074 13.026 8.6341 13.2965 8.6341H13.4352C13.7057 8.6341 13.925 8.42074 13.925 8.15754V4.85156C13.925 4.58836 13.7057 4.375 13.4352 4.375Z" fill="#786A66"/>
<path d="M16.0743 4.375H15.9356C15.6651 4.375 15.4458 4.58836 15.4458 4.85156V8.15754C15.4458 8.42074 15.6651 8.6341 15.9356 8.6341H16.0743C16.3448 8.6341 16.5641 8.42074 16.5641 8.15754V4.85156C16.5641 4.58836 16.3448 4.375 16.0743 4.375Z" fill="#786A66"/>
<path d="M18.7145 4.375H18.5758C18.3053 4.375 18.086 4.58836 18.086 4.85156V8.15754C18.086 8.42074 18.3053 8.6341 18.5758 8.6341H18.7145C18.985 8.6341 19.2043 8.42074 19.2043 8.15754V4.85156C19.2043 4.58836 18.985 4.375 18.7145 4.375Z" fill="#786A66"/>
<path d="M21.3547 4.375H21.2161C20.9455 4.375 20.7262 4.58836 20.7262 4.85156V8.15754C20.7262 8.42074 20.9455 8.6341 21.2161 8.6341H21.3547C21.6252 8.6341 21.8446 8.42074 21.8446 8.15754V4.85156C21.8446 4.58836 21.6252 4.375 21.3547 4.375Z" fill="#786A66"/>
<path d="M23.9938 4.375H23.8552C23.5846 4.375 23.3653 4.58836 23.3653 4.85156V8.15754C23.3653 8.42074 23.5846 8.6341 23.8552 8.6341H23.9938C24.2643 8.6341 24.4836 8.42074 24.4836 8.15754V4.85156C24.4836 4.58836 24.2643 4.375 23.9938 4.375Z" fill="#786A66"/>
<path d="M26.634 4.375H26.4954C26.2248 4.375 26.0055 4.58836 26.0055 4.85156V8.15754C26.0055 8.42074 26.2248 8.6341 26.4954 8.6341H26.634C26.9045 8.6341 27.1239 8.42074 27.1239 8.15754V4.85156C27.1239 4.58836 26.9045 4.375 26.634 4.375Z" fill="#786A66"/>
<path d="M29.2742 4.375H29.1356C28.8651 4.375 28.6458 4.58836 28.6458 4.85156V8.15754C28.6458 8.42074 28.8651 8.6341 29.1356 8.6341H29.2742C29.5448 8.6341 29.7641 8.42074 29.7641 8.15754V4.85156C29.7641 4.58836 29.5448 4.375 29.2742 4.375Z" fill="#786A66"/>
<path d="M31.9137 4.375H31.7751C31.5045 4.375 31.2852 4.58836 31.2852 4.85156V8.15754C31.2852 8.42074 31.5045 8.6341 31.7751 8.6341H31.9137C32.1842 8.6341 32.4035 8.42074 32.4035 8.15754V4.85156C32.4035 4.58836 32.1842 4.375 31.9137 4.375Z" fill="#786A66"/>
<path d="M34.5539 4.375H34.4153C34.1448 4.375 33.9255 4.58836 33.9255 4.85156V8.15754C33.9255 8.42074 34.1448 8.6341 34.4153 8.6341H34.5539C34.8245 8.6341 35.0438 8.42074 35.0438 8.15754V4.85156C35.0438 4.58836 34.8245 4.375 34.5539 4.375Z" fill="#786A66"/>
<path d="M37.1938 4.375H37.0551C36.7846 4.375 36.5653 4.58836 36.5653 4.85156V8.15754C36.5653 8.42074 36.7846 8.6341 37.0551 8.6341H37.1938C37.4643 8.6341 37.6836 8.42074 37.6836 8.15754V4.85156C37.6836 4.58836 37.4643 4.375 37.1938 4.375Z" fill="#786A66"/>
<path d="M39.8332 4.375H39.6946C39.4241 4.375 39.2048 4.58836 39.2048 4.85156V8.15754C39.2048 8.42074 39.4241 8.6341 39.6946 8.6341H39.8332C40.1038 8.6341 40.3231 8.42074 40.3231 8.15754V4.85156C40.3231 4.58836 40.1038 4.375 39.8332 4.375Z" fill="#786A66"/>
<path d="M42.4735 4.375H42.3348C42.0643 4.375 41.845 4.58836 41.845 4.85156V8.15754C41.845 8.42074 42.0643 8.6341 42.3348 8.6341H42.4735C42.744 8.6341 42.9633 8.42074 42.9633 8.15754V4.85156C42.9633 4.58836 42.744 4.375 42.4735 4.375Z" fill="#786A66"/>
<path d="M45.1137 4.375H44.9751C44.7045 4.375 44.4852 4.58836 44.4852 4.85156V8.15754C44.4852 8.42074 44.7045 8.6341 44.9751 8.6341H45.1137C45.3842 8.6341 45.6035 8.42074 45.6035 8.15754V4.85156C45.6035 4.58836 45.3842 4.375 45.1137 4.375Z" fill="#786A66"/>
<path d="M47.7528 4.375H47.6141C47.3436 4.375 47.1243 4.58836 47.1243 4.85156V8.15754C47.1243 8.42074 47.3436 8.6341 47.6141 8.6341H47.7528C48.0233 8.6341 48.2426 8.42074 48.2426 8.15754V4.85156C48.2426 4.58836 48.0233 4.375 47.7528 4.375Z" fill="#786A66"/>
<path d="M51.1273 11.0629H10.4222C10.3369 11.0629 10.2681 10.996 10.2681 10.913C10.2681 10.8301 10.3369 10.7632 10.4222 10.7632H51.1273C51.2125 10.7632 51.2813 10.8301 51.2813 10.913C51.2813 10.996 51.2125 11.0629 51.1273 11.0629Z" fill="#786A66"/>
<path d="M14.5412 15.8587C14.4559 15.8587 14.3871 15.7917 14.3871 15.7088V13.2451C14.3871 13.1622 14.4559 13.0952 14.5412 13.0952H18.1251C18.2104 13.0952 18.2792 13.1622 18.2792 13.2451C18.2792 13.328 18.2104 13.3949 18.1251 13.3949H14.6952V15.7088C14.6952 15.7917 14.6264 15.8587 14.5412 15.8587Z" fill="#786A66"/>
<path d="M19.3572 15.8587C19.272 15.8587 19.2032 15.7917 19.2032 15.7088V13.2451C19.2032 13.1622 19.272 13.0952 19.3572 13.0952H22.9412C23.0264 13.0952 23.0952 13.1622 23.0952 13.2451C23.0952 13.328 23.0264 13.3949 22.9412 13.3949H19.5113V15.7088C19.5113 15.7917 19.4424 15.8587 19.3572 15.8587Z" fill="#786A66"/>
<path d="M24.1736 15.8587C24.0884 15.8587 24.0196 15.7917 24.0196 15.7088V13.2451C24.0196 13.1622 24.0884 13.0952 24.1736 13.0952H27.7576C27.8428 13.0952 27.9116 13.1622 27.9116 13.2451C27.9116 13.328 27.8428 13.3949 27.7576 13.3949H24.3277V15.7088C24.3277 15.7917 24.2589 15.8587 24.1736 15.8587Z" fill="#786A66"/>
<path d="M28.99 15.8587C28.9048 15.8587 28.836 15.7917 28.836 15.7088V13.2451C28.836 13.1622 28.9048 13.0952 28.99 13.0952H32.574C32.6592 13.0952 32.728 13.1622 32.728 13.2451C32.728 13.328 32.6592 13.3949 32.574 13.3949H29.1441V15.7088C29.1441 15.7917 29.0753 15.8587 28.99 15.8587Z" fill="#786A66"/>
<path d="M33.8061 15.8587C33.7208 15.8587 33.652 15.7917 33.652 15.7088V13.2451C33.652 13.1622 33.7208 13.0952 33.8061 13.0952H37.39C37.4753 13.0952 37.5441 13.1622 37.5441 13.2451C37.5441 13.328 37.4753 13.3949 37.39 13.3949H33.9601V15.7088C33.9601 15.7917 33.8913 15.8587 33.8061 15.8587Z" fill="#786A66"/>
<path d="M38.6225 15.8587C38.5373 15.8587 38.4684 15.7917 38.4684 15.7088V13.2451C38.4684 13.1622 38.5373 13.0952 38.6225 13.0952H42.2064C42.2917 13.0952 42.3605 13.1622 42.3605 13.2451C42.3605 13.328 42.2917 13.3949 42.2064 13.3949H38.7765V15.7088C38.7765 15.7917 38.7077 15.8587 38.6225 15.8587Z" fill="#786A66"/>
<path d="M43.4385 15.8587C43.3533 15.8587 43.2845 15.7917 43.2845 15.7088V13.2451C43.2845 13.1622 43.3533 13.0952 43.4385 13.0952H47.0225C47.1077 13.0952 47.1765 13.1622 47.1765 13.2451C47.1765 13.328 47.1077 13.3949 47.0225 13.3949H43.5926V15.7088C43.5926 15.7917 43.5238 15.8587 43.4385 15.8587Z" fill="#786A66"/>
<path d="M14.5412 19.844C14.4559 19.844 14.3871 19.7771 14.3871 19.6942V17.2304C14.3871 17.1475 14.4559 17.0806 14.5412 17.0806H18.1251C18.2104 17.0806 18.2792 17.1475 18.2792 17.2304C18.2792 17.3134 18.2104 17.3803 18.1251 17.3803H14.6952V19.6942C14.6952 19.7771 14.6264 19.844 14.5412 19.844Z" fill="#786A66"/>
<path d="M19.3572 19.844C19.272 19.844 19.2032 19.7771 19.2032 19.6942V17.2304C19.2032 17.1475 19.272 17.0806 19.3572 17.0806H22.9412C23.0264 17.0806 23.0952 17.1475 23.0952 17.2304C23.0952 17.3134 23.0264 17.3803 22.9412 17.3803H19.5113V19.6942C19.5113 19.7771 19.4424 19.844 19.3572 19.844Z" fill="#786A66"/>
<path d="M24.1736 19.844C24.0884 19.844 24.0196 19.7771 24.0196 19.6942V17.2304C24.0196 17.1475 24.0884 17.0806 24.1736 17.0806H27.7576C27.8428 17.0806 27.9116 17.1475 27.9116 17.2304C27.9116 17.3134 27.8428 17.3803 27.7576 17.3803H24.3277V19.6942C24.3277 19.7771 24.2589 19.844 24.1736 19.844Z" fill="#786A66"/>
<path d="M28.99 19.844C28.9048 19.844 28.836 19.7771 28.836 19.6942V17.2304C28.836 17.1475 28.9048 17.0806 28.99 17.0806H32.574C32.6592 17.0806 32.728 17.1475 32.728 17.2304C32.728 17.3134 32.6592 17.3803 32.574 17.3803H29.1441V19.6942C29.1441 19.7771 29.0753 19.844 28.99 19.844Z" fill="#786A66"/>
<path d="M33.8061 19.844C33.7208 19.844 33.652 19.7771 33.652 19.6942V17.2304C33.652 17.1475 33.7208 17.0806 33.8061 17.0806H37.39C37.4753 17.0806 37.5441 17.1475 37.5441 17.2304C37.5441 17.3134 37.4753 17.3803 37.39 17.3803H33.9601V19.6942C33.9601 19.7771 33.8913 19.844 33.8061 19.844Z" fill="#786A66"/>
<path d="M38.6225 19.844C38.5373 19.844 38.4684 19.7771 38.4684 19.6942V17.2304C38.4684 17.1475 38.5373 17.0806 38.6225 17.0806H42.2064C42.2917 17.0806 42.3605 17.1475 42.3605 17.2304C42.3605 17.3134 42.2917 17.3803 42.2064 17.3803H38.7765V19.6942C38.7765 19.7771 38.7077 19.844 38.6225 19.844Z" fill="#786A66"/>
<path d="M43.4385 19.844C43.3533 19.844 43.2845 19.7771 43.2845 19.6942V17.2304C43.2845 17.1475 43.3533 17.0806 43.4385 17.0806H47.0225C47.1077 17.0806 47.1765 17.1475 47.1765 17.2304C47.1765 17.3134 47.1077 17.3803 47.0225 17.3803H43.5926V19.6942C43.5926 19.7771 43.5238 19.844 43.4385 19.844Z" fill="#786A66"/>
<path d="M14.5412 23.8284C14.4559 23.8284 14.3871 23.7615 14.3871 23.6786V21.2148C14.3871 21.1319 14.4559 21.0649 14.5412 21.0649H18.1251C18.2104 21.0649 18.2792 21.1319 18.2792 21.2148C18.2792 21.2977 18.2104 21.3647 18.1251 21.3647H14.6952V23.6786C14.6952 23.7615 14.6264 23.8284 14.5412 23.8284Z" fill="#786A66"/>
<path d="M19.3572 23.8284C19.272 23.8284 19.2032 23.7615 19.2032 23.6786V21.2148C19.2032 21.1319 19.272 21.0649 19.3572 21.0649H22.9412C23.0264 21.0649 23.0952 21.1319 23.0952 21.2148C23.0952 21.2977 23.0264 21.3647 22.9412 21.3647H19.5113V23.6786C19.5113 23.7615 19.4424 23.8284 19.3572 23.8284Z" fill="#786A66"/>
<path d="M24.1736 23.8284C24.0884 23.8284 24.0196 23.7615 24.0196 23.6786V21.2148C24.0196 21.1319 24.0884 21.0649 24.1736 21.0649H27.7576C27.8428 21.0649 27.9116 21.1319 27.9116 21.2148C27.9116 21.2977 27.8428 21.3647 27.7576 21.3647H24.3277V23.6786C24.3277 23.7615 24.2589 23.8284 24.1736 23.8284Z" fill="#786A66"/>
<path d="M28.99 23.8284C28.9048 23.8284 28.836 23.7615 28.836 23.6786V21.2148C28.836 21.1319 28.9048 21.0649 28.99 21.0649H32.574C32.6592 21.0649 32.728 21.1319 32.728 21.2148C32.728 21.2977 32.6592 21.3647 32.574 21.3647H29.1441V23.6786C29.1441 23.7615 29.0753 23.8284 28.99 23.8284Z" fill="#786A66"/>
<path d="M33.8061 23.8284C33.7208 23.8284 33.652 23.7615 33.652 23.6786V21.2148C33.652 21.1319 33.7208 21.0649 33.8061 21.0649H37.39C37.4753 21.0649 37.5441 21.1319 37.5441 21.2148C37.5441 21.2977 37.4753 21.3647 37.39 21.3647H33.9601V23.6786C33.9601 23.7615 33.8913 23.8284 33.8061 23.8284Z" fill="#786A66"/>
<path d="M38.6225 23.8284C38.5373 23.8284 38.4684 23.7615 38.4684 23.6786V21.2148C38.4684 21.1319 38.5373 21.0649 38.6225 21.0649H42.2064C42.2917 21.0649 42.3605 21.1319 42.3605 21.2148C42.3605 21.2977 42.2917 21.3647 42.2064 21.3647H38.7765V23.6786C38.7765 23.7615 38.7077 23.8284 38.6225 23.8284Z" fill="#786A66"/>
<path d="M43.4385 23.8284C43.3533 23.8284 43.2845 23.7615 43.2845 23.6786V21.2148C43.2845 21.1319 43.3533 21.0649 43.4385 21.0649H47.0225C47.1077 21.0649 47.1765 21.1319 47.1765 21.2148C47.1765 21.2977 47.1077 21.3647 47.0225 21.3647H43.5926V23.6786C43.5926 23.7615 43.5238 23.8284 43.4385 23.8284Z" fill="#786A66"/>
<path d="M14.5412 27.8123C14.4559 27.8123 14.3871 27.7454 14.3871 27.6624V25.1987C14.3871 25.1158 14.4559 25.0488 14.5412 25.0488H18.1251C18.2104 25.0488 18.2792 25.1158 18.2792 25.1987C18.2792 25.2816 18.2104 25.3486 18.1251 25.3486H14.6952V27.6624C14.6952 27.7454 14.6264 27.8123 14.5412 27.8123Z" fill="#786A66"/>
<path d="M19.3572 27.8123C19.272 27.8123 19.2032 27.7454 19.2032 27.6624V25.1987C19.2032 25.1158 19.272 25.0488 19.3572 25.0488H22.9412C23.0264 25.0488 23.0952 25.1158 23.0952 25.1987C23.0952 25.2816 23.0264 25.3486 22.9412 25.3486H19.5113V27.6624C19.5113 27.7454 19.4424 27.8123 19.3572 27.8123Z" fill="#786A66"/>
<path d="M24.1736 27.8123C24.0884 27.8123 24.0196 27.7454 24.0196 27.6624V25.1987C24.0196 25.1158 24.0884 25.0488 24.1736 25.0488H27.7576C27.8428 25.0488 27.9116 25.1158 27.9116 25.1987C27.9116 25.2816 27.8428 25.3486 27.7576 25.3486H24.3277V27.6624C24.3277 27.7454 24.2589 27.8123 24.1736 27.8123Z" fill="#786A66"/>
<path d="M28.99 27.8123C28.9048 27.8123 28.836 27.7454 28.836 27.6624V25.1987C28.836 25.1158 28.9048 25.0488 28.99 25.0488H32.574C32.6592 25.0488 32.728 25.1158 32.728 25.1987C32.728 25.2816 32.6592 25.3486 32.574 25.3486H29.1441V27.6624C29.1441 27.7454 29.0753 27.8123 28.99 27.8123Z" fill="#786A66"/>
<path d="M33.8061 27.8123C33.7208 27.8123 33.652 27.7454 33.652 27.6624V25.1987C33.652 25.1158 33.7208 25.0488 33.8061 25.0488H37.39C37.4753 25.0488 37.5441 25.1158 37.5441 25.1987C37.5441 25.2816 37.4753 25.3486 37.39 25.3486H33.9601V27.6624C33.9601 27.7454 33.8913 27.8123 33.8061 27.8123Z" fill="#786A66"/>
<path d="M38.6225 27.8123C38.5373 27.8123 38.4684 27.7454 38.4684 27.6624V25.1987C38.4684 25.1158 38.5373 25.0488 38.6225 25.0488H42.2064C42.2917 25.0488 42.3605 25.1158 42.3605 25.1987C42.3605 25.2816 42.2917 25.3486 42.2064 25.3486H38.7765V27.6624C38.7765 27.7454 38.7077 27.8123 38.6225 27.8123Z" fill="#786A66"/>
<path d="M43.4385 27.8123C43.3533 27.8123 43.2845 27.7454 43.2845 27.6624V25.1987C43.2845 25.1158 43.3533 25.0488 43.4385 25.0488H47.0225C47.1077 25.0488 47.1765 25.1158 47.1765 25.1987C47.1765 25.2816 47.1077 25.3486 47.0225 25.3486H43.5926V27.6624C43.5926 27.7454 43.5238 27.8123 43.4385 27.8123Z" fill="#786A66"/>
<path d="M14.5412 31.7981C14.4559 31.7981 14.3871 31.7312 14.3871 31.6483V29.1845C14.3871 29.1016 14.4559 29.0347 14.5412 29.0347H18.1251C18.2104 29.0347 18.2792 29.1016 18.2792 29.1845C18.2792 29.2675 18.2104 29.3344 18.1251 29.3344H14.6952V31.6483C14.6952 31.7312 14.6264 31.7981 14.5412 31.7981Z" fill="#786A66"/>
<path d="M19.3572 31.7981C19.272 31.7981 19.2032 31.7312 19.2032 31.6483V29.1845C19.2032 29.1016 19.272 29.0347 19.3572 29.0347H22.9412C23.0264 29.0347 23.0952 29.1016 23.0952 29.1845C23.0952 29.2675 23.0264 29.3344 22.9412 29.3344H19.5113V31.6483C19.5113 31.7312 19.4424 31.7981 19.3572 31.7981Z" fill="#786A66"/>
<path d="M24.1736 31.7981C24.0884 31.7981 24.0196 31.7312 24.0196 31.6483V29.1845C24.0196 29.1016 24.0884 29.0347 24.1736 29.0347H27.7576C27.8428 29.0347 27.9116 29.1016 27.9116 29.1845C27.9116 29.2675 27.8428 29.3344 27.7576 29.3344H24.3277V31.6483C24.3277 31.7312 24.2589 31.7981 24.1736 31.7981Z" fill="#786A66"/>
<path d="M28.99 31.7981C28.9048 31.7981 28.836 31.7312 28.836 31.6483V29.1845C28.836 29.1016 28.9048 29.0347 28.99 29.0347H32.574C32.6592 29.0347 32.728 29.1016 32.728 29.1845C32.728 29.2675 32.6592 29.3344 32.574 29.3344H29.1441V31.6483C29.1441 31.7312 29.0753 31.7981 28.99 31.7981Z" fill="#786A66"/>
<path d="M33.8061 31.7981C33.7208 31.7981 33.652 31.7312 33.652 31.6483V29.1845C33.652 29.1016 33.7208 29.0347 33.8061 29.0347H37.39C37.4753 29.0347 37.5441 29.1016 37.5441 29.1845C37.5441 29.2675 37.4753 29.3344 37.39 29.3344H33.9601V31.6483C33.9601 31.7312 33.8913 31.7981 33.8061 31.7981Z" fill="#786A66"/>
<path d="M38.6225 31.7981C38.5373 31.7981 38.4684 31.7312 38.4684 31.6483V29.1845C38.4684 29.1016 38.5373 29.0347 38.6225 29.0347H42.2064C42.2917 29.0347 42.3605 29.1016 42.3605 29.1845C42.3605 29.2675 42.2917 29.3344 42.2064 29.3344H38.7765V31.6483C38.7765 31.7312 38.7077 31.7981 38.6225 31.7981Z" fill="#786A66"/>
<path d="M43.4385 31.7981C43.3533 31.7981 43.2845 31.7312 43.2845 31.6483V29.1845C43.2845 29.1016 43.3533 29.0347 43.4385 29.0347H47.0225C47.1077 29.0347 47.1765 29.1016 47.1765 29.1845C47.1765 29.2675 47.1077 29.3344 47.0225 29.3344H43.5926V31.6483C43.5926 31.7312 43.5238 31.7981 43.4385 31.7981Z" fill="#786A66"/>
<path d="M12.4873 41.7747C18.3494 41.7747 23.1015 37.1513 23.1015 31.4481C23.1015 25.7449 18.3494 21.1216 12.4873 21.1216C6.62518 21.1216 1.87302 25.7449 1.87302 31.4481C1.87302 37.1513 6.62518 41.7747 12.4873 41.7747Z" fill="white"/>
<path d="M12.4871 42.625C6.15309 42.625 1 37.6116 1 31.4492C1 25.2868 6.15309 20.2734 12.4871 20.2734C18.8212 20.2734 23.9753 25.2868 23.9753 31.4492C23.9753 37.6116 18.8222 42.625 12.4871 42.625ZM12.4871 21.9709C7.11532 21.9709 2.74577 26.223 2.74577 31.4482C2.74577 36.6734 7.11634 40.9255 12.4871 40.9255C17.8579 40.9255 22.2295 36.6734 22.2295 31.4482C22.2295 26.223 17.859 21.9709 12.4871 21.9709Z" fill="#786A66"/>
<path d="M12.6012 39.219C17.0125 39.219 20.5885 35.7399 20.5885 31.4481C20.5885 27.1564 17.0125 23.6772 12.6012 23.6772C8.18983 23.6772 4.61376 27.1564 4.61376 31.4481C4.61376 35.7399 8.18983 39.219 12.6012 39.219Z" fill="white"/>
<path d="M12.4872 40.0683C7.60209 40.0683 3.6279 36.2018 3.6279 31.4492C3.6279 26.6965 7.60209 22.8301 12.4872 22.8301C17.3722 22.8301 21.3474 26.6965 21.3474 31.4492C21.3474 36.2018 17.3733 40.0683 12.4872 40.0683Z" fill="#E9E9E9"/>
<path d="M12.4872 32.0477C12.3444 32.0477 12.2058 31.9997 12.0949 31.9108L9.27497 29.6459L10.0595 28.7217L12.3978 30.599L15.7384 26.5537L16.6996 27.305L12.9678 31.8239C12.8641 31.9488 12.7141 32.0287 12.5498 32.0447C12.5293 32.0467 12.5077 32.0477 12.4872 32.0477Z" fill="#E7BC4C"/>
<path d="M12.4872 25.05C12.9511 25.05 13.3272 24.6841 13.3272 24.2328C13.3272 23.7814 12.9511 23.4155 12.4872 23.4155C12.0233 23.4155 11.6472 23.7814 11.6472 24.2328C11.6472 24.6841 12.0233 25.05 12.4872 25.05Z" fill="white"/>
<path d="M12.4872 39.219C12.9511 39.219 13.3272 38.8531 13.3272 38.4017C13.3272 37.9504 12.9511 37.5845 12.4872 37.5845C12.0233 37.5845 11.6472 37.9504 11.6472 38.4017C11.6472 38.8531 12.0233 39.219 12.4872 39.219Z" fill="white"/>
<path d="M19.7702 32.1345C20.2341 32.1345 20.6102 31.7686 20.6102 31.3173C20.6102 30.8659 20.2341 30.5 19.7702 30.5C19.3062 30.5 18.9301 30.8659 18.9301 31.3173C18.9301 31.7686 19.3062 32.1345 19.7702 32.1345Z" fill="white"/>
<path d="M5.20539 32.1345C5.66932 32.1345 6.04541 31.7686 6.04541 31.3173C6.04541 30.8659 5.66932 30.5 5.20539 30.5C4.74146 30.5 4.36537 30.8659 4.36537 31.3173C4.36537 31.7686 4.74146 32.1345 5.20539 32.1345Z" fill="white"/>
<path d="M17.6371 27.1252C18.101 27.1252 18.4771 26.7593 18.4771 26.308C18.4771 25.8566 18.101 25.4907 17.6371 25.4907C17.1732 25.4907 16.7971 25.8566 16.7971 26.308C16.7971 26.7593 17.1732 27.1252 17.6371 27.1252Z" fill="white"/>
<path d="M7.33844 37.1443C7.80238 37.1443 8.17847 36.7784 8.17847 36.327C8.17847 35.8757 7.80238 35.5098 7.33844 35.5098C6.87451 35.5098 6.49842 35.8757 6.49842 36.327C6.49842 36.7784 6.87451 37.1443 7.33844 37.1443Z" fill="white"/>
<path d="M17.6371 37.1443C18.101 37.1443 18.4771 36.7784 18.4771 36.327C18.4771 35.8757 18.101 35.5098 17.6371 35.5098C17.1732 35.5098 16.7971 35.8757 16.7971 36.327C16.7971 36.7784 17.1732 37.1443 17.6371 37.1443Z" fill="white"/>
<path d="M7.33844 27.1252C7.80238 27.1252 8.17847 26.7593 8.17847 26.308C8.17847 25.8566 7.80238 25.4907 7.33844 25.4907C6.87451 25.4907 6.49842 25.8566 6.49842 26.308C6.49842 26.7593 6.87451 27.1252 7.33844 27.1252Z" fill="white"/>
</g>
<path d="M36.5561 30.9364C36.7353 30.8133 36.8567 30.6227 36.8924 30.4083C36.9281 30.1939 36.8751 29.9742 36.7454 29.7997L35.7702 28.4872C35.5136 28.1419 35.0298 28.0613 34.6752 28.3049C30.0233 31.499 26.5111 35.9495 24.647 38.8366L21.5943 36.2165C21.2683 35.9367 20.7795 35.9644 20.4871 36.2791L19.3696 37.4823C19.2215 37.6417 19.1448 37.8546 19.1571 38.0719C19.1693 38.2892 19.2696 38.4921 19.4347 38.6338L24.7923 43.2321C24.9766 43.3903 25.2229 43.4562 25.4616 43.4112C25.7003 43.3662 25.9057 43.2151 26.0197 43.0006L26.5145 42.07C27.6782 39.8814 31.3774 34.4923 36.5561 30.9364Z" fill="#E1AC23" stroke="#786A66" stroke-width="1.6" stroke-linejoin="round"/>
<defs>
<clipPath id="clip0_1343_2306">
<rect width="51" height="38.25" fill="white" transform="translate(1 4.375)"/>
</clipPath>
</defs>
</svg>
