<svg width="20" height="20" viewBox="0 0 20 20" fill="none" xmlns="http://www.w3.org/2000/svg">
<path d="M8.33342 15.8334V11.6668H11.6667V15.8334C11.6667 16.2918 12.0417 16.6668 12.5001 16.6668H15.0001C15.4584 16.6668 15.8334 16.2918 15.8334 15.8334V10.0001H17.2501C17.6334 10.0001 17.8167 9.5251 17.5251 9.2751L10.5584 3.0001C10.2417 2.71676 9.75842 2.71676 9.44175 3.0001L2.47508 9.2751C2.19175 9.5251 2.36675 10.0001 2.75008 10.0001H4.16675V15.8334C4.16675 16.2918 4.54175 16.6668 5.00008 16.6668H7.50008C7.95842 16.6668 8.33342 16.2918 8.33342 15.8334Z" fill="url(#paint0_linear_1625_2441)"/>
<defs>
<linearGradient id="paint0_linear_1625_2441" x1="10.0019" y1="2.7876" x2="10.0019" y2="16.6668" gradientUnits="userSpaceOnUse">
<stop offset="0.2" stop-color="#DAC46F"/>
<stop offset="0.845" stop-color="#C7AE4D"/>
</linearGradient>
</defs>
</svg>
