<svg width="20" height="20" viewBox="0 0 20 20" fill="none" xmlns="http://www.w3.org/2000/svg">
<path d="M12.2376 15.1754C12.2377 15.5517 12.0955 15.914 11.8396 16.1899C11.5837 16.4657 11.233 16.6347 10.8577 16.6629L10.7458 16.6667H9.25412C8.87778 16.6668 8.5153 16.5247 8.23934 16.2689C7.96339 16.0131 7.79436 15.6624 7.76613 15.2873L7.7624 15.1754H12.2376ZM9.99998 2.5C11.3537 2.49998 12.6545 3.02558 13.628 3.96593C14.6015 4.90629 15.1716 6.18787 15.218 7.54035L15.221 7.7193V10.5258L16.5799 13.2428C16.6392 13.3614 16.6689 13.4925 16.6664 13.625C16.664 13.7576 16.6294 13.8875 16.5657 14.0038C16.5019 14.12 16.411 14.2191 16.3006 14.2925C16.1902 14.3659 16.0637 14.4115 15.9318 14.4254L15.846 14.4298H4.15394C4.0213 14.4299 3.89063 14.3978 3.77312 14.3362C3.65561 14.2747 3.55477 14.1857 3.47925 14.0767C3.40372 13.9677 3.35576 13.842 3.33946 13.7104C3.32317 13.5788 3.33904 13.4452 3.3857 13.3211L3.42001 13.2428L4.77897 10.5258V7.7193C4.77897 6.33505 5.32904 5.00751 6.30817 4.0287C7.2873 3.04989 8.61528 2.5 9.99998 2.5Z" fill="url(#paint0_linear_1625_2470)"/>
<defs>
<linearGradient id="paint0_linear_1625_2470" x1="9.99992" y1="2.5" x2="9.99992" y2="16.6667" gradientUnits="userSpaceOnUse">
<stop offset="0.2" stop-color="#DAC46F"/>
<stop offset="0.845" stop-color="#C7AE4D"/>
</linearGradient>
</defs>
</svg>
