<svg width="433" height="168" viewBox="0 0 433 168" fill="none" xmlns="http://www.w3.org/2000/svg">
<g clip-path="url(#clip0_39_176)">
<path d="M202.49 23.5V59.53H209.44V24.69C209.44 16.15 202.39 10.69 191.36 10.69C185.6 10.69 179.54 11.98 174.57 14.16C170.79 11.78 166.42 10.69 160.26 10.69C156.58 10.69 153.3 11.09 149.73 11.88H142.18V59.53H149.04V16.75C152.62 14.86 156.39 13.87 160.66 13.87C167.22 13.87 172.28 17.54 172.28 22.21V59.53H179.33V17.65C183.6 15.17 187.48 13.88 191.25 13.88C197.81 13.88 202.48 17.95 202.48 23.51L202.49 23.5Z" fill="white"/>
<path d="M235.65 10.7C227.01 10.7 221.74 14.27 218.36 22.41C220.35 23.1 220.65 23.2 222.33 23.7C224.71 17.15 228.99 13.87 234.85 13.87C239.32 13.87 243.1 15.86 245.28 19.23C246.97 22.01 247.47 24.59 247.47 32.63C243.5 31.24 240.42 30.74 236.24 30.74C225.11 30.74 217.16 37.19 217.16 46.32C217.16 55.45 224.41 60.71 236.93 60.71C240.61 60.71 244.28 60.21 246.67 59.52H254.32V27.66C254.32 17.93 246.37 10.69 235.64 10.69L235.65 10.7ZM247.44 55.68C244.26 56.97 241.38 57.57 238.2 57.57C230.45 57.57 223.99 52.21 223.99 45.96C223.99 39.71 230.55 34.05 237.7 34.05C240.48 34.05 243.56 34.45 247.44 35.34V55.69V55.68Z" fill="white"/>
<path d="M270.39 16.65C272.97 14.76 275.95 13.87 279.63 13.87C282.91 13.87 285.69 14.96 288.77 17.54L290.96 13.37C287.48 11.58 283.81 10.69 279.43 10.69C276.65 10.69 274.26 11.09 271.18 11.88H263.43V59.53H270.38V16.65H270.39Z" fill="white"/>
<path d="M302.67 50.82C302.67 56.87 306.84 60.45 314.1 60.45C315.39 60.45 317.78 60.25 319.76 59.85L320.06 59.75H320.36V55.78C317.78 56.67 316.58 56.87 315 56.87C311.42 56.87 309.54 54.69 309.54 50.52V15.29H320.37V12.01H309.54V0H302.68V12.01H298.01V15.29H302.68V50.83L302.67 50.82Z" fill="white"/>
<path d="M116.92 57.55C111.95 57.55 108.57 55.86 102.02 50.01L101.42 50.8C100.33 52.29 99.63 53.38 99.33 53.68C106.19 59.14 110.16 60.73 116.52 60.73C126.16 60.73 133.81 53.98 133.81 45.44C133.81 38.89 129.24 35.12 115.63 30.35C108.87 27.97 106.79 26.28 106.79 23C106.79 18.04 111.26 13.87 116.63 13.87C119.81 13.87 122.99 15.46 128.16 19.83L130.94 16.06C125.28 12.09 121.7 10.7 116.63 10.7C106.69 10.7 99.54 16.66 99.54 25.09C99.54 31.34 102.42 33.92 113.55 37.8C118.92 39.69 119.81 40.08 121.7 40.98C125.38 42.87 126.77 44.75 126.77 47.53C126.77 53.39 122.7 57.56 116.93 57.56L116.92 57.55Z" fill="white"/>
<path d="M89.15 90H79.54V166.58H89.15V90Z" fill="white"/>
<path d="M56.81 90H48.08V126.03H8.75V90H0V166.58H8.75V130.54H48.08V166.58H56.81V130.54H66.65V126.03H56.81V90Z" fill="white"/>
<path d="M352.59 90.43H343.16V165.91H352.59V90.43Z" fill="white"/>
<path d="M144.56 147.79L120.57 90.3H111.33V166.45H116.28V105.75L143.16 167.53L168.04 106.2V166.45H176.57V90.3H168.04L144.56 147.79Z" fill="white"/>
<path d="M211.53 130.54H237.97V126.25H211.53V94.5H246.49V90.21H203V126.25H193.39V130.54H203V166.36H246.71V161.43H211.53V130.54Z" fill="white"/>
<path d="M430.7 151.04C425.07 159.98 416.86 165.42 406.66 165.42C385.25 165.42 375.76 147.83 375.76 128.85C375.76 107.86 386.99 91.63 406.66 91.63C416.64 91.63 424.83 97.41 430.48 106.22L432.66 104.72C426.75 95.49 419.54 88.84 404.26 88.84C383.5 88.84 366.67 106.56 366.67 128.42C366.67 150.28 383.5 168 404.26 168C416.31 168 426.98 163.07 432.88 152.55L430.69 151.05L430.7 151.04Z" fill="white"/>
<path d="M293.47 90.78H274.58H265.15V166.27H274.58H293.63C315 166.27 329.08 149.31 329.08 128.46C329.08 107.61 313.13 90.79 293.47 90.79V90.78ZM293.69 163.68L274.59 163.63V93.32L293.48 93.28C307.83 93.28 320.13 109.31 320.13 128.5C320.13 147.69 308.06 163.69 293.69 163.69V163.68Z" fill="white"/>
</g>
<defs>
<clipPath id="clip0_39_176">
<rect width="432.88" height="167.99" fill="white"/>
</clipPath>
</defs>
</svg>
