<svg width="546" height="61" viewBox="0 0 546 61" fill="none" xmlns="http://www.w3.org/2000/svg">
<path d="M88.0226 28.8177V59.5608H93.9528V29.8331C93.9528 22.5463 87.9373 17.8874 78.5258 17.8874C73.611 17.8874 68.4402 18.9881 64.1995 20.8483C60.9742 18.8175 57.2454 17.8874 51.9893 17.8874C48.8493 17.8874 46.0506 18.2287 43.0045 18.9028H36.5623V59.5608H42.4157V23.0582C45.4704 21.4455 48.6872 20.6008 52.3306 20.6008C57.928 20.6008 62.2455 23.7323 62.2455 27.717V59.5608H68.2611V23.8261C71.9045 21.7101 75.2152 20.6093 78.432 20.6093C84.0294 20.6093 88.0141 24.0821 88.0141 28.8263L88.0226 28.8177Z" fill="white"/>
<path d="M116.317 17.896C108.945 17.896 104.448 20.9421 101.564 27.8877C103.262 28.4764 103.518 28.5618 104.951 28.9884C106.982 23.3995 110.634 20.6008 115.634 20.6008C119.448 20.6008 122.674 22.2988 124.534 25.1743C125.976 27.5464 126.402 29.7478 126.402 36.608C123.015 35.422 120.387 34.9954 116.82 34.9954C107.323 34.9954 100.54 40.4989 100.54 48.2892C100.54 56.0795 106.726 60.5677 117.409 60.5677C120.549 60.5677 123.681 60.141 125.72 59.5523H132.247V32.3673C132.247 24.0651 125.464 17.8874 116.308 17.8874L116.317 17.896ZM126.377 56.2758C123.663 57.3765 121.206 57.8884 118.493 57.8884C111.88 57.8884 106.368 53.3149 106.368 47.982C106.368 42.6491 111.965 37.8197 118.066 37.8197C120.438 37.8197 123.066 38.161 126.377 38.9204V56.2843V56.2758Z" fill="white"/>
<path d="M145.959 22.9729C148.161 21.3602 150.703 20.6008 153.843 20.6008C156.642 20.6008 159.014 21.5309 161.642 23.7323L163.511 20.1742C160.542 18.6468 157.41 17.8874 153.673 17.8874C151.301 17.8874 149.261 18.2287 146.633 18.9028H140.021V59.5608H145.951V22.9729H145.959Z" fill="white"/>
<path d="M173.503 52.1289C173.503 57.2912 177.061 60.3458 183.255 60.3458C184.356 60.3458 186.395 60.1752 188.085 59.8339L188.341 59.7486H188.597V56.3611C186.395 57.1205 185.371 57.2912 184.023 57.2912C180.969 57.2912 179.365 55.431 179.365 51.8729V21.8125H188.605V19.0138H179.365V8.76606H173.511V19.0138H169.526V21.8125H173.511V52.1374L173.503 52.1289Z" fill="white"/>
<path d="M15.0089 57.8714C10.7682 57.8714 7.88415 56.4294 2.29527 51.4378L1.78332 52.1118C0.85326 53.3832 0.255979 54.3133 0 54.5692C5.85339 59.2281 9.24084 60.5847 14.6676 60.5847C22.8931 60.5847 29.4205 54.8252 29.4205 47.5383C29.4205 41.9495 25.5211 38.7327 13.9082 34.6626C8.14013 32.6318 6.36535 31.1898 6.36535 28.3911C6.36535 24.1589 10.1794 20.6008 14.7615 20.6008C17.4748 20.6008 20.1882 21.9575 24.5996 25.6863L26.9717 22.4695C22.1422 19.082 19.0875 17.896 14.7615 17.896C6.28002 17.896 0.179185 22.9814 0.179185 30.1744C0.179185 35.5073 2.63659 37.7088 12.1334 41.0194C16.7154 42.6321 17.4748 42.9649 19.0875 43.7328C22.2275 45.3455 23.4135 46.9496 23.4135 49.3217C23.4135 54.3218 19.9408 57.8799 15.0174 57.8799L15.0089 57.8714Z" fill="white"/>
<path d="M283.481 0.885945H276.142V59.3728H283.481V0.885945Z" fill="white"/>
<path d="M258.782 0.885945H252.115V28.4033H222.077V0.885945H215.395V59.3728H222.077V31.8477H252.115V59.3728H258.782V31.8477H266.297V28.4033H258.782V0.885945Z" fill="white"/>
<path d="M484.68 1.21436H477.478V58.8611H484.68V1.21436Z" fill="white"/>
<path d="M325.8 45.0222L307.478 1.11506H300.421V59.2735H304.202V12.9148L324.731 60.0983L343.732 13.2584V59.2735H350.247V1.11506H343.732L325.8 45.0222Z" fill="white"/>
<path d="M376.947 31.8477H397.14V28.5713H376.947V4.32275H403.647V1.04632H370.433V28.5713H363.093V31.8477H370.433V59.2047H403.816V55.4395H376.947V31.8477Z" fill="white"/>
<path d="M544.335 47.5043C540.035 54.3321 533.765 58.4868 525.975 58.4868C509.623 58.4868 502.375 45.0527 502.375 30.557C502.375 14.5262 510.952 2.13082 525.975 2.13082C533.597 2.13082 539.852 6.54521 544.167 13.2737L545.832 12.1281C541.318 5.07884 535.812 0 524.142 0C508.287 0 495.433 13.5334 495.433 30.2286C495.433 46.9239 508.287 60.4573 524.142 60.4573C533.345 60.4573 541.494 56.692 546 48.6576L544.327 47.5119L544.335 47.5043Z" fill="white"/>
<path d="M439.528 1.48165H425.101H417.899V59.136H425.101H439.65C455.971 59.136 466.724 46.1831 466.724 30.2592C466.724 14.3353 454.543 1.48929 439.528 1.48929V1.48165ZM439.696 57.1579L425.108 57.1197V3.42154L439.535 3.39099C450.495 3.39099 459.889 15.6337 459.889 30.2897C459.889 44.9458 450.671 57.1656 439.696 57.1656V57.1579Z" fill="white"/>
</svg>
